<mxfile host="app.diagrams.net" modified="2021-09-05T03:27:05.212Z" agent="5.0 (X11; Linux x86_64) AppleWebKit/537.36 (KHTML, like Gecko) Chrome/91.0.4472.114 Safari/537.36" etag="GRIXCoGkyjYWsSnUi6i7" version="15.0.6" type="github">
  <diagram id="tJ-TtfcXqpHzfjzBwCbB" name="Page-1">
    <mxGraphModel dx="936" dy="544" grid="1" gridSize="10" guides="1" tooltips="1" connect="1" arrows="1" fold="1" page="1" pageScale="1" pageWidth="850" pageHeight="1100" math="0" shadow="0">
      <root>
        <mxCell id="0" />
        <mxCell id="1" parent="0" />
        <mxCell id="yJhl_CgLUmFzM6Lcxhxq-7" style="edgeStyle=orthogonalEdgeStyle;rounded=0;orthogonalLoop=1;jettySize=auto;html=1;exitX=1;exitY=0.5;exitDx=0;exitDy=0;entryX=0;entryY=0.5;entryDx=0;entryDy=0;startArrow=classic;startFill=1;" edge="1" parent="1" source="yJhl_CgLUmFzM6Lcxhxq-3" target="yJhl_CgLUmFzM6Lcxhxq-5">
          <mxGeometry relative="1" as="geometry" />
        </mxCell>
        <mxCell id="yJhl_CgLUmFzM6Lcxhxq-8" style="edgeStyle=orthogonalEdgeStyle;rounded=0;orthogonalLoop=1;jettySize=auto;html=1;exitX=1;exitY=0.5;exitDx=0;exitDy=0;entryX=0;entryY=0.5;entryDx=0;entryDy=0;" edge="1" parent="1" source="yJhl_CgLUmFzM6Lcxhxq-3" target="yJhl_CgLUmFzM6Lcxhxq-4">
          <mxGeometry relative="1" as="geometry" />
        </mxCell>
        <mxCell id="yJhl_CgLUmFzM6Lcxhxq-9" style="edgeStyle=orthogonalEdgeStyle;rounded=0;orthogonalLoop=1;jettySize=auto;html=1;exitX=1;exitY=0.5;exitDx=0;exitDy=0;entryX=0;entryY=0.5;entryDx=0;entryDy=0;" edge="1" parent="1" source="yJhl_CgLUmFzM6Lcxhxq-3" target="yJhl_CgLUmFzM6Lcxhxq-6">
          <mxGeometry relative="1" as="geometry" />
        </mxCell>
        <mxCell id="yJhl_CgLUmFzM6Lcxhxq-38" style="edgeStyle=orthogonalEdgeStyle;rounded=0;orthogonalLoop=1;jettySize=auto;html=1;exitX=0.5;exitY=1;exitDx=0;exitDy=0;entryX=0.5;entryY=0;entryDx=0;entryDy=0;startArrow=classic;startFill=1;endArrow=classic;endFill=1;" edge="1" parent="1" source="yJhl_CgLUmFzM6Lcxhxq-3" target="yJhl_CgLUmFzM6Lcxhxq-17">
          <mxGeometry relative="1" as="geometry" />
        </mxCell>
        <mxCell id="yJhl_CgLUmFzM6Lcxhxq-3" value="" style="aspect=fixed;perimeter=ellipsePerimeter;html=1;align=center;shadow=0;dashed=0;spacingTop=3;image;image=img/lib/active_directory/database_partition_5.svg;" vertex="1" parent="1">
          <mxGeometry x="590" y="550" width="50" height="37" as="geometry" />
        </mxCell>
        <mxCell id="yJhl_CgLUmFzM6Lcxhxq-4" value="" style="aspect=fixed;perimeter=ellipsePerimeter;html=1;align=center;shadow=0;dashed=0;spacingTop=3;image;image=img/lib/active_directory/database.svg;" vertex="1" parent="1">
          <mxGeometry x="750" y="500" width="50" height="37" as="geometry" />
        </mxCell>
        <mxCell id="yJhl_CgLUmFzM6Lcxhxq-5" value="" style="aspect=fixed;perimeter=ellipsePerimeter;html=1;align=center;shadow=0;dashed=0;spacingTop=3;image;image=img/lib/active_directory/database.svg;" vertex="1" parent="1">
          <mxGeometry x="750" y="550" width="50" height="37" as="geometry" />
        </mxCell>
        <mxCell id="yJhl_CgLUmFzM6Lcxhxq-6" value="" style="aspect=fixed;perimeter=ellipsePerimeter;html=1;align=center;shadow=0;dashed=0;spacingTop=3;image;image=img/lib/active_directory/database.svg;" vertex="1" parent="1">
          <mxGeometry x="750" y="600" width="50" height="37" as="geometry" />
        </mxCell>
        <mxCell id="yJhl_CgLUmFzM6Lcxhxq-10" value="" style="outlineConnect=0;fontColor=#232F3E;gradientColor=none;strokeColor=none;dashed=0;verticalLabelPosition=bottom;verticalAlign=top;align=center;html=1;fontSize=12;fontStyle=0;aspect=fixed;shape=mxgraph.aws4.blockchain_resource;direction=south;fillColor=#0B03FF;" vertex="1" parent="1">
          <mxGeometry x="280" y="578" width="23" height="78" as="geometry" />
        </mxCell>
        <mxCell id="yJhl_CgLUmFzM6Lcxhxq-11" value="" style="outlineConnect=0;fontColor=#232F3E;gradientColor=none;fillColor=#FF9900;strokeColor=none;dashed=0;verticalLabelPosition=bottom;verticalAlign=top;align=center;html=1;fontSize=12;fontStyle=0;aspect=fixed;shape=mxgraph.aws4.blockchain_resource;direction=south;" vertex="1" parent="1">
          <mxGeometry x="280" y="350" width="23" height="78" as="geometry" />
        </mxCell>
        <mxCell id="yJhl_CgLUmFzM6Lcxhxq-31" style="edgeStyle=orthogonalEdgeStyle;rounded=0;orthogonalLoop=1;jettySize=auto;html=1;exitX=1;exitY=0.5;exitDx=0;exitDy=0;exitPerimeter=0;startArrow=classic;startFill=1;endArrow=none;endFill=0;" edge="1" parent="1" source="yJhl_CgLUmFzM6Lcxhxq-12">
          <mxGeometry relative="1" as="geometry">
            <mxPoint x="290" y="440" as="targetPoint" />
          </mxGeometry>
        </mxCell>
        <mxCell id="yJhl_CgLUmFzM6Lcxhxq-33" style="edgeStyle=orthogonalEdgeStyle;rounded=0;orthogonalLoop=1;jettySize=auto;html=1;exitX=0.5;exitY=1;exitDx=0;exitDy=0;exitPerimeter=0;entryX=0;entryY=0.5;entryDx=0;entryDy=0;entryPerimeter=0;startArrow=classic;startFill=1;" edge="1" parent="1" source="yJhl_CgLUmFzM6Lcxhxq-12" target="yJhl_CgLUmFzM6Lcxhxq-30">
          <mxGeometry relative="1" as="geometry" />
        </mxCell>
        <mxCell id="yJhl_CgLUmFzM6Lcxhxq-40" style="edgeStyle=orthogonalEdgeStyle;rounded=0;orthogonalLoop=1;jettySize=auto;html=1;exitX=0;exitY=0.5;exitDx=0;exitDy=0;exitPerimeter=0;entryX=0.5;entryY=0;entryDx=0;entryDy=0;entryPerimeter=0;startArrow=classic;startFill=1;endArrow=classic;endFill=1;" edge="1" parent="1" source="yJhl_CgLUmFzM6Lcxhxq-12" target="yJhl_CgLUmFzM6Lcxhxq-39">
          <mxGeometry relative="1" as="geometry" />
        </mxCell>
        <mxCell id="yJhl_CgLUmFzM6Lcxhxq-12" value="" style="verticalLabelPosition=bottom;html=1;verticalAlign=top;align=center;strokeColor=none;shape=mxgraph.azure.worker_role;fillColor=#80FF00;" vertex="1" parent="1">
          <mxGeometry x="180" y="450" width="50" height="40" as="geometry" />
        </mxCell>
        <mxCell id="yJhl_CgLUmFzM6Lcxhxq-32" style="edgeStyle=orthogonalEdgeStyle;rounded=0;orthogonalLoop=1;jettySize=auto;html=1;exitX=0;exitY=0.5;exitDx=0;exitDy=0;exitPerimeter=0;startArrow=classic;startFill=1;endArrow=classic;endFill=1;" edge="1" parent="1" source="yJhl_CgLUmFzM6Lcxhxq-13">
          <mxGeometry relative="1" as="geometry">
            <mxPoint x="290" y="430" as="targetPoint" />
          </mxGeometry>
        </mxCell>
        <mxCell id="yJhl_CgLUmFzM6Lcxhxq-34" style="edgeStyle=orthogonalEdgeStyle;rounded=0;orthogonalLoop=1;jettySize=auto;html=1;exitX=0.5;exitY=1;exitDx=0;exitDy=0;exitPerimeter=0;entryX=1;entryY=0.5;entryDx=0;entryDy=0;entryPerimeter=0;startArrow=classic;startFill=1;" edge="1" parent="1" source="yJhl_CgLUmFzM6Lcxhxq-13" target="yJhl_CgLUmFzM6Lcxhxq-30">
          <mxGeometry relative="1" as="geometry" />
        </mxCell>
        <mxCell id="yJhl_CgLUmFzM6Lcxhxq-13" value="" style="verticalLabelPosition=bottom;html=1;verticalAlign=top;align=center;strokeColor=none;shape=mxgraph.azure.worker_role;fillColor=#3333FF;" vertex="1" parent="1">
          <mxGeometry x="350" y="450" width="50" height="40" as="geometry" />
        </mxCell>
        <mxCell id="yJhl_CgLUmFzM6Lcxhxq-14" style="edgeStyle=orthogonalEdgeStyle;rounded=0;orthogonalLoop=1;jettySize=auto;html=1;exitX=1;exitY=0.5;exitDx=0;exitDy=0;entryX=0;entryY=0.5;entryDx=0;entryDy=0;" edge="1" parent="1" source="yJhl_CgLUmFzM6Lcxhxq-17" target="yJhl_CgLUmFzM6Lcxhxq-19">
          <mxGeometry relative="1" as="geometry" />
        </mxCell>
        <mxCell id="yJhl_CgLUmFzM6Lcxhxq-15" style="edgeStyle=orthogonalEdgeStyle;rounded=0;orthogonalLoop=1;jettySize=auto;html=1;exitX=1;exitY=0.5;exitDx=0;exitDy=0;entryX=0;entryY=0.5;entryDx=0;entryDy=0;" edge="1" parent="1" source="yJhl_CgLUmFzM6Lcxhxq-17" target="yJhl_CgLUmFzM6Lcxhxq-18">
          <mxGeometry relative="1" as="geometry" />
        </mxCell>
        <mxCell id="yJhl_CgLUmFzM6Lcxhxq-16" style="edgeStyle=orthogonalEdgeStyle;rounded=0;orthogonalLoop=1;jettySize=auto;html=1;exitX=1;exitY=0.5;exitDx=0;exitDy=0;entryX=0;entryY=0.5;entryDx=0;entryDy=0;" edge="1" parent="1" source="yJhl_CgLUmFzM6Lcxhxq-17" target="yJhl_CgLUmFzM6Lcxhxq-20">
          <mxGeometry relative="1" as="geometry" />
        </mxCell>
        <mxCell id="yJhl_CgLUmFzM6Lcxhxq-50" style="edgeStyle=orthogonalEdgeStyle;rounded=0;orthogonalLoop=1;jettySize=auto;html=1;exitX=0.5;exitY=1;exitDx=0;exitDy=0;entryX=0.5;entryY=1;entryDx=0;entryDy=0;entryPerimeter=0;startArrow=classic;startFill=1;endArrow=classic;endFill=1;" edge="1" parent="1" source="yJhl_CgLUmFzM6Lcxhxq-17" target="yJhl_CgLUmFzM6Lcxhxq-39">
          <mxGeometry relative="1" as="geometry" />
        </mxCell>
        <mxCell id="yJhl_CgLUmFzM6Lcxhxq-17" value="" style="aspect=fixed;perimeter=ellipsePerimeter;html=1;align=center;shadow=0;dashed=0;spacingTop=3;image;image=img/lib/active_directory/database_partition_5.svg;" vertex="1" parent="1">
          <mxGeometry x="590" y="784" width="50" height="37" as="geometry" />
        </mxCell>
        <mxCell id="yJhl_CgLUmFzM6Lcxhxq-18" value="" style="aspect=fixed;perimeter=ellipsePerimeter;html=1;align=center;shadow=0;dashed=0;spacingTop=3;image;image=img/lib/active_directory/database.svg;" vertex="1" parent="1">
          <mxGeometry x="720" y="734" width="50" height="37" as="geometry" />
        </mxCell>
        <mxCell id="yJhl_CgLUmFzM6Lcxhxq-19" value="" style="aspect=fixed;perimeter=ellipsePerimeter;html=1;align=center;shadow=0;dashed=0;spacingTop=3;image;image=img/lib/active_directory/database.svg;" vertex="1" parent="1">
          <mxGeometry x="720" y="784" width="50" height="37" as="geometry" />
        </mxCell>
        <mxCell id="yJhl_CgLUmFzM6Lcxhxq-20" value="" style="aspect=fixed;perimeter=ellipsePerimeter;html=1;align=center;shadow=0;dashed=0;spacingTop=3;image;image=img/lib/active_directory/database.svg;" vertex="1" parent="1">
          <mxGeometry x="720" y="834" width="50" height="37" as="geometry" />
        </mxCell>
        <mxCell id="yJhl_CgLUmFzM6Lcxhxq-26" value="" style="outlineConnect=0;fontColor=#232F3E;gradientColor=none;strokeColor=none;dashed=0;verticalLabelPosition=bottom;verticalAlign=top;align=center;html=1;fontSize=12;fontStyle=0;aspect=fixed;shape=mxgraph.aws4.blockchain_resource;direction=south;fillColor=#80FF00;" vertex="1" parent="1">
          <mxGeometry x="280" y="656" width="23" height="78" as="geometry" />
        </mxCell>
        <mxCell id="yJhl_CgLUmFzM6Lcxhxq-27" value="" style="outlineConnect=0;fontColor=#232F3E;gradientColor=none;strokeColor=none;dashed=0;verticalLabelPosition=bottom;verticalAlign=top;align=center;html=1;fontSize=12;fontStyle=0;aspect=fixed;shape=mxgraph.aws4.blockchain_resource;direction=south;fillColor=#0B03FF;" vertex="1" parent="1">
          <mxGeometry x="280" y="734" width="23" height="78" as="geometry" />
        </mxCell>
        <mxCell id="yJhl_CgLUmFzM6Lcxhxq-28" value="" style="outlineConnect=0;strokeColor=#b85450;dashed=0;verticalLabelPosition=bottom;verticalAlign=top;align=center;html=1;fontSize=12;fontStyle=0;aspect=fixed;shape=mxgraph.aws4.blockchain_resource;direction=south;fillColor=#FF0000;" vertex="1" parent="1">
          <mxGeometry x="280" y="272" width="23" height="78" as="geometry" />
        </mxCell>
        <mxCell id="yJhl_CgLUmFzM6Lcxhxq-30" value="" style="points=[[0,0,0],[0.25,0,0],[0.5,0,0],[0.75,0,0],[1,0,0],[0,1,0],[0.25,1,0],[0.5,1,0],[0.75,1,0],[1,1,0],[0,0.25,0],[0,0.5,0],[0,0.75,0],[1,0.25,0],[1,0.5,0],[1,0.75,0]];outlineConnect=0;fontColor=#232F3E;gradientColor=#FF4F8B;gradientDirection=north;fillColor=#BC1356;strokeColor=#ffffff;dashed=0;verticalLabelPosition=bottom;verticalAlign=top;align=center;html=1;fontSize=12;fontStyle=0;aspect=fixed;shape=mxgraph.aws4.resourceIcon;resIcon=mxgraph.aws4.sqs;" vertex="1" parent="1">
          <mxGeometry x="253" y="500" width="78" height="78" as="geometry" />
        </mxCell>
        <mxCell id="yJhl_CgLUmFzM6Lcxhxq-36" style="edgeStyle=orthogonalEdgeStyle;rounded=0;orthogonalLoop=1;jettySize=auto;html=1;exitX=0;exitY=0.5;exitDx=0;exitDy=0;exitPerimeter=0;startArrow=classic;startFill=1;endArrow=none;endFill=0;" edge="1" parent="1" source="yJhl_CgLUmFzM6Lcxhxq-35">
          <mxGeometry relative="1" as="geometry">
            <mxPoint x="310" y="770.1176470588236" as="targetPoint" />
          </mxGeometry>
        </mxCell>
        <mxCell id="yJhl_CgLUmFzM6Lcxhxq-37" style="edgeStyle=orthogonalEdgeStyle;rounded=0;orthogonalLoop=1;jettySize=auto;html=1;exitX=1;exitY=0.5;exitDx=0;exitDy=0;exitPerimeter=0;entryX=0;entryY=0.5;entryDx=0;entryDy=0;startArrow=none;startFill=0;endArrow=classic;endFill=1;" edge="1" parent="1" source="yJhl_CgLUmFzM6Lcxhxq-35" target="yJhl_CgLUmFzM6Lcxhxq-3">
          <mxGeometry relative="1" as="geometry" />
        </mxCell>
        <mxCell id="yJhl_CgLUmFzM6Lcxhxq-35" value="" style="verticalLabelPosition=bottom;html=1;verticalAlign=top;align=center;strokeColor=none;shape=mxgraph.azure.worker_role;fillColor=#FF33FF;" vertex="1" parent="1">
          <mxGeometry x="375" y="750" width="50" height="40" as="geometry" />
        </mxCell>
        <mxCell id="yJhl_CgLUmFzM6Lcxhxq-39" value="" style="verticalLabelPosition=bottom;html=1;verticalAlign=top;align=center;strokeColor=none;fillColor=#00BEF2;shape=mxgraph.azure.user;" vertex="1" parent="1">
          <mxGeometry x="20" y="850" width="47.5" height="50" as="geometry" />
        </mxCell>
        <mxCell id="yJhl_CgLUmFzM6Lcxhxq-54" style="edgeStyle=orthogonalEdgeStyle;rounded=0;orthogonalLoop=1;jettySize=auto;html=1;exitX=0;exitY=0.5;exitDx=0;exitDy=0;exitPerimeter=0;startArrow=classic;startFill=1;endArrow=none;endFill=0;" edge="1" parent="1" source="yJhl_CgLUmFzM6Lcxhxq-51" target="yJhl_CgLUmFzM6Lcxhxq-26">
          <mxGeometry relative="1" as="geometry" />
        </mxCell>
        <mxCell id="yJhl_CgLUmFzM6Lcxhxq-55" style="edgeStyle=orthogonalEdgeStyle;rounded=0;orthogonalLoop=1;jettySize=auto;html=1;exitX=1;exitY=0.5;exitDx=0;exitDy=0;exitPerimeter=0;entryX=0;entryY=0.5;entryDx=0;entryDy=0;startArrow=none;startFill=0;endArrow=classic;endFill=1;" edge="1" parent="1" source="yJhl_CgLUmFzM6Lcxhxq-51" target="yJhl_CgLUmFzM6Lcxhxq-3">
          <mxGeometry relative="1" as="geometry" />
        </mxCell>
        <mxCell id="yJhl_CgLUmFzM6Lcxhxq-51" value="" style="verticalLabelPosition=bottom;html=1;verticalAlign=top;align=center;strokeColor=none;shape=mxgraph.azure.worker_role;fillColor=#33FFFF;" vertex="1" parent="1">
          <mxGeometry x="375" y="675" width="50" height="40" as="geometry" />
        </mxCell>
        <mxCell id="yJhl_CgLUmFzM6Lcxhxq-57" value="Unconfirmed Block Data" style="text;html=1;strokeColor=none;fillColor=none;align=center;verticalAlign=middle;whiteSpace=wrap;rounded=0;" vertex="1" parent="1">
          <mxGeometry x="303" y="301" width="180" height="20" as="geometry" />
        </mxCell>
        <mxCell id="yJhl_CgLUmFzM6Lcxhxq-58" value="Message Broker Select" style="text;html=1;strokeColor=none;fillColor=none;align=center;verticalAlign=middle;whiteSpace=wrap;rounded=0;" vertex="1" parent="1">
          <mxGeometry x="308" y="379" width="180" height="20" as="geometry" />
        </mxCell>
        <mxCell id="yJhl_CgLUmFzM6Lcxhxq-59" value="LIFO&lt;br&gt;Queue" style="text;html=1;strokeColor=none;fillColor=none;align=center;verticalAlign=middle;whiteSpace=wrap;rounded=0;" vertex="1" parent="1">
          <mxGeometry x="335" y="558" width="40" height="20" as="geometry" />
        </mxCell>
        <mxCell id="yJhl_CgLUmFzM6Lcxhxq-60" value="Broker Socket to User" style="text;html=1;strokeColor=none;fillColor=none;align=center;verticalAlign=middle;whiteSpace=wrap;rounded=0;" vertex="1" parent="1">
          <mxGeometry x="100" y="428" width="180" height="20" as="geometry" />
        </mxCell>
        <mxCell id="yJhl_CgLUmFzM6Lcxhxq-61" value="Queue Workers" style="text;html=1;strokeColor=none;fillColor=none;align=center;verticalAlign=middle;whiteSpace=wrap;rounded=0;" vertex="1" parent="1">
          <mxGeometry x="308" y="650" width="180" height="20" as="geometry" />
        </mxCell>
        <mxCell id="yJhl_CgLUmFzM6Lcxhxq-62" value="Append Only B+Tree" style="text;html=1;strokeColor=none;fillColor=none;align=center;verticalAlign=middle;whiteSpace=wrap;rounded=0;" vertex="1" parent="1">
          <mxGeometry x="595" y="517" width="40" height="20" as="geometry" />
        </mxCell>
        <mxCell id="yJhl_CgLUmFzM6Lcxhxq-63" value="B+Tree to Memory Replication" style="text;html=1;strokeColor=none;fillColor=none;align=center;verticalAlign=middle;whiteSpace=wrap;rounded=0;" vertex="1" parent="1">
          <mxGeometry x="560" y="685" width="50" height="20" as="geometry" />
        </mxCell>
        <mxCell id="yJhl_CgLUmFzM6Lcxhxq-65" value="&amp;nbsp;Memory Tree to Client Replication and Requests" style="text;html=1;strokeColor=none;fillColor=none;align=center;verticalAlign=middle;whiteSpace=wrap;rounded=0;" vertex="1" parent="1">
          <mxGeometry x="270" y="940" width="152" height="20" as="geometry" />
        </mxCell>
      </root>
    </mxGraphModel>
  </diagram>
</mxfile>
